$MeshFormat
2.2 0 8
$EndMeshFormat
$Nodes
181
1 0.000000 0.000000 0.000000
2 0.007603 -0.019556 0.048125
3 -0.031141 0.015365 0.039375
4 0.040943 0.011919 0.030625
5 -0.024778 -0.040789 0.021875
6 -0.009887 0.049862 0.013125
7 0.042168 -0.030967 0.004375
8 -0.052011 -0.005650 -0.004375
9 0.033555 0.038184 -0.013125
10 0.000986 -0.047715 -0.021875
11 -0.029448 0.030841 -0.030625
12 0.034648 -0.002320 -0.039375
13 -0.016384 -0.013107 -0.048125
14 0.007726 -0.019872 0.102812
15 -0.032767 0.016167 0.098437
16 0.044801 0.013042 0.094063
17 -0.028347 -0.046665 0.089687
18 -0.011905 0.060042 0.085312
19 0.053913 -0.039592 0.080937
20 -0.071435 -0.007760 0.076563
21 0.050333 0.057276 0.072188
22 0.001656 -0.080148 0.067812
23 -0.057781 0.060515 0.063438
24 0.086620 -0.005801 0.059062
25 -0.069992 -0.055995 0.054687
26 0.014174 0.091065 0.050312
27 0.052312 -0.078601 0.045937
28 -0.093615 0.023103 0.041563
29 0.086188 0.047049 0.037187
30 -0.032272 -0.094376 0.032812
31 -0.040488 0.092612 0.028438
32 0.093447 -0.041397 0.024063
33 -0.097752 -0.032894 0.019688
34 0.050217 0.090933 0.015313
35 0.024526 -0.101508 0.010938
36 -0.086956 0.058486 0.006563
37 0.103806 0.015639 0.002188
38 -0.065979 -0.081652 -0.002187
39 -0.006493 0.104593 -0.006563
40 0.075176 -0.072484 -0.010937
41 -0.103844 0.002653 -0.015312
42 0.077805 0.067703 -0.019688
43 -0.011533 -0.101553 -0.024062
44 -0.059430 0.081758 -0.028437
45 0.097741 -0.019876 -0.032812
46 -0.084171 -0.050570 -0.037187
47 0.027402 0.092448 -0.041562
48 0.041364 -0.084875 -0.045937
49 -0.085733 0.033815 -0.050313
50 0.083699 0.032073 -0.054687
51 -0.038792 -0.077665 -0.059062
52 -0.022994 0.080449 -0.063438
53 0.068311 -0.041954 -0.067812
54 -0.074865 -0.014465 -0.072188
55 0.042814 0.057707 -0.076562
56 0.006899 -0.066532 -0.080937
57 -0.045782 0.040630 -0.085312
58 0.054593 0.000862 -0.089688
59 -0.033905 -0.032058 -0.094062
60 0.002619 0.036444 -0.098437
61 0.013238 -0.016714 -0.102813
62 0.007003 -0.018011 0.148750
63 -0.029890 0.014748 0.146250
64 0.041140 0.011976 0.143750
65 -0.026209 -0.043145 0.141250
66 -0.011085 0.055907 0.138750
67 0.050566 -0.037135 0.136250
68 -0.067507 -0.007333 0.133750
69 0.047936 0.054549 0.131250
70 0.001590 -0.076947 0.128750
71 -0.055937 0.058583 0.126250
72 0.084580 -0.005665 0.123750
73 -0.068957 -0.055167 0.121250
74 0.014094 0.090553 0.118750
75 0.052521 -0.078915 0.116250
76 -0.094932 0.023428 0.113750
77 0.088314 0.048209 0.111250
78 -0.033427 -0.097755 0.108750
79 -0.042414 0.097016 0.106250
80 0.099048 -0.043879 0.103750
81 -0.104893 -0.035298 0.101250
82 0.054583 0.098839 0.098750
83 0.027019 -0.111830 0.096250
84 -0.097161 0.065350 0.093750
85 0.117724 0.017736 0.091250
86 -0.076004 -0.094058 0.088750
87 -0.007603 0.122487 0.086250
88 0.089583 -0.086376 0.083750
89 -0.126048 0.003220 0.081250
90 0.096308 0.083804 0.078750
91 -0.014576 -0.128349 0.076250
92 -0.076799 0.105654 0.073750
93 0.129350 -0.026304 0.071250
94 -0.114278 -0.068659 0.068750
95 0.038245 0.129028 0.066250
96 0.059484 -0.122056 0.063750
97 -0.127375 0.050240 0.061250
98 0.128878 0.049385 0.058750
99 -0.062135 -0.124399 0.056250
100 -0.038485 0.134647 0.053750
101 0.120126 -0.073777 0.051250
102 -0.139281 -0.026911 0.048750
103 0.085021 0.114597 0.046250
104 0.014798 -0.142713 0.043750
105 -0.107865 0.095726 0.041250
106 0.144890 0.002288 0.038750
107 -0.105761 -0.100002 0.036250
108 0.010478 0.145778 0.033750
109 0.091090 -0.115005 0.031250
110 -0.145355 0.023351 0.028750
111 0.123343 0.081224 0.026250
112 -0.036187 -0.143619 0.023750
113 -0.070510 0.130678 0.021250
114 0.140582 -0.048839 0.018750
115 -0.136920 -0.059065 0.016250
116 0.061166 0.136271 0.013750
117 0.047014 -0.141997 0.011250
118 -0.130730 0.073028 0.008750
119 0.145848 0.034487 0.006250
120 -0.084295 -0.124017 0.003750
121 -0.021622 0.148428 0.001250
122 0.116205 -0.094841 -0.001250
123 -0.149709 -0.008560 -0.003750
124 0.104550 0.107379 -0.006250
125 -0.004555 -0.149675 -0.008750
126 -0.097637 0.113316 -0.011250
127 0.148330 -0.017579 -0.013750
128 -0.121044 -0.087087 -0.016250
129 0.030368 0.145692 -0.018750
130 0.075850 -0.127653 -0.021250
131 -0.141794 0.042782 -0.023750
132 0.133073 0.064051 -0.026250
133 -0.054685 -0.136686 -0.028750
134 -0.051827 0.137249 -0.031250
135 0.130431 -0.065945 -0.033750
136 -0.140143 -0.039317 -0.036250
137 0.076438 0.123108 -0.038750
138 0.026668 -0.141730 -0.041250
139 -0.114810 0.086050 -0.043750
140 0.142001 0.014025 -0.046250
141 -0.094676 -0.105640 -0.048750
142 -0.001538 0.140965 -0.051250
143 0.095716 -0.102222 -0.053750
144 -0.138646 0.010645 -0.056250
145 0.108607 0.085164 -0.058750
146 -0.022378 -0.135084 -0.061250
147 -0.074122 0.113763 -0.063750
148 0.130336 -0.033517 -0.066250
149 -0.117635 -0.062734 -0.068750
150 0.043925 0.124475 -0.071250
151 0.051152 -0.120185 -0.073750
152 -0.117588 0.053470 -0.076250
153 0.121390 0.039535 -0.078750
154 -0.062028 -0.109777 -0.081250
155 -0.028044 0.121241 -0.083750
156 0.101159 -0.069482 -0.086250
157 -0.119748 -0.016848 -0.088750
158 0.075725 0.091865 -0.091250
159 0.006114 -0.116934 -0.093750
160 -0.082037 0.080659 -0.096250
161 0.112839 -0.003985 -0.098750
162 -0.084194 -0.071832 -0.101250
163 0.013274 0.107516 -0.103750
164 0.061417 -0.086249 -0.106250
165 -0.101035 0.021574 -0.108750
166 0.086748 0.050973 -0.111250
167 -0.028701 -0.093473 -0.113750
168 -0.040695 0.085615 -0.116250
169 0.084919 -0.034456 -0.118750
170 -0.082766 -0.030793 -0.121250
171 0.038617 0.075463 -0.123750
172 0.021499 -0.078094 -0.126250
173 -0.065187 0.040916 -0.128750
174 0.071431 0.013080 -0.131250
175 -0.040990 -0.054137 -0.133750
176 -0.005862 0.062463 -0.136250
177 0.042258 -0.038246 -0.138750
178 -0.050481 -0.000304 -0.141250
179 0.031420 0.029133 -0.143750
180 -0.002714 -0.033220 -0.146250
181 -0.011850 0.015265 -0.148750
$EndNodes
$Elements
692
1 4 2 0 1 36 44 11 49
2 4 2 0 1 8 36 41 28
3 4 2 0 1 8 36 11 49
4 4 2 0 1 8 36 41 49
5 4 2 0 1 110 36 118 28
6 4 2 0 1 110 36 41 28
7 4 2 0 1 92 79 23 84
8 4 2 0 1 131 110 41 123
9 4 2 0 1 131 36 41 49
10 4 2 0 1 131 110 36 118
11 4 2 0 1 131 110 36 41
12 4 2 0 1 77 21 29 90
13 4 2 0 1 19 22 2 27
14 4 2 0 1 19 2 7 27
15 4 2 0 1 74 79 87 18
16 4 2 0 1 74 79 66 18
17 4 2 0 1 33 110 41 123
18 4 2 0 1 33 110 41 28
19 4 2 0 1 33 136 41 123
20 4 2 0 1 33 8 41 28
21 4 2 0 1 54 136 157 41
22 4 2 0 1 54 8 41 49
23 4 2 0 1 54 8 11 49
24 4 2 0 1 97 110 118 28
25 4 2 0 1 97 36 118 28
26 4 2 0 1 97 110 89 28
27 4 2 0 1 97 23 28 84
28 4 2 0 1 31 92 79 23
29 4 2 0 1 31 79 87 18
30 4 2 0 1 31 79 23 18
31 4 2 0 1 31 126 36 44
32 4 2 0 1 138 117 35 125
33 4 2 0 1 140 119 37 127
34 4 2 0 1 140 119 37 132
35 4 2 0 1 40 35 7 27
36 4 2 0 1 78 65 70 17
37 4 2 0 1 78 22 70 17
38 4 2 0 1 76 97 28 84
39 4 2 0 1 76 97 89 28
40 4 2 0 1 76 23 28 84
41 4 2 0 1 14 22 70 17
42 4 2 0 1 14 19 22 70
43 4 2 0 1 14 22 2 17
44 4 2 0 1 14 19 22 2
45 4 2 0 1 14 67 70 62
46 4 2 0 1 14 65 70 62
47 4 2 0 1 14 65 70 17
48 4 2 0 1 14 67 64 62
49 4 2 0 1 14 15 2 17
50 4 2 0 1 14 15 65 17
51 4 2 0 1 80 19 101 88
52 4 2 0 1 32 101 88 27
53 4 2 0 1 32 19 88 27
54 4 2 0 1 32 19 101 88
55 4 2 0 1 32 19 7 27
56 4 2 0 1 32 40 7 27
57 4 2 0 1 32 80 101 93
58 4 2 0 1 32 80 19 101
59 4 2 0 1 24 77 21 29
60 4 2 0 1 24 32 19 7
61 4 2 0 1 24 32 80 93
62 4 2 0 1 24 32 80 19
63 4 2 0 1 104 117 35 125
64 4 2 0 1 104 22 35 27
65 4 2 0 1 109 101 88 27
66 4 2 0 1 109 40 35 27
67 4 2 0 1 109 32 101 27
68 4 2 0 1 109 32 40 27
69 4 2 0 1 109 32 101 122
70 4 2 0 1 109 32 40 122
71 4 2 0 1 63 14 15 66
72 4 2 0 1 63 14 65 62
73 4 2 0 1 63 14 15 65
74 4 2 0 1 63 14 64 62
75 4 2 0 1 63 14 64 66
76 4 2 0 1 3 15 2 17
77 4 2 0 1 3 36 23 28
78 4 2 0 1 3 8 36 28
79 4 2 0 1 3 8 36 11
80 4 2 0 1 3 15 23 18
81 4 2 0 1 3 15 2 18
82 4 2 0 1 3 8 11 1
83 4 2 0 1 144 131 41 123
84 4 2 0 1 144 136 41 123
85 4 2 0 1 144 136 157 41
86 4 2 0 1 144 131 41 49
87 4 2 0 1 144 54 41 49
88 4 2 0 1 144 54 157 49
89 4 2 0 1 144 54 157 41
90 4 2 0 1 144 152 131 49
91 4 2 0 1 115 33 136 123
92 4 2 0 1 149 54 157 162
93 4 2 0 1 170 54 157 162
94 4 2 0 1 13 54 8 11
95 4 2 0 1 13 8 11 1
96 4 2 0 1 13 12 11 1
97 4 2 0 1 13 12 61 56
98 4 2 0 1 105 36 23 28
99 4 2 0 1 105 97 23 28
100 4 2 0 1 105 97 36 28
101 4 2 0 1 105 31 36 23
102 4 2 0 1 105 31 92 23
103 4 2 0 1 105 92 23 84
104 4 2 0 1 105 97 23 84
105 4 2 0 1 105 97 36 118
106 4 2 0 1 105 126 36 118
107 4 2 0 1 100 31 79 87
108 4 2 0 1 100 31 92 79
109 4 2 0 1 165 54 157 49
110 4 2 0 1 165 144 157 49
111 4 2 0 1 165 144 152 49
112 4 2 0 1 165 170 54 157
113 4 2 0 1 139 152 131 49
114 4 2 0 1 139 131 36 49
115 4 2 0 1 139 36 44 49
116 4 2 0 1 139 126 36 44
117 4 2 0 1 139 131 36 118
118 4 2 0 1 139 126 36 118
119 4 2 0 1 139 44 160 49
120 4 2 0 1 139 152 160 49
121 4 2 0 1 177 174 61 58
122 4 2 0 1 166 171 55 158
123 4 2 0 1 166 174 161 58
124 4 2 0 1 166 174 55 58
125 4 2 0 1 134 39 31 121
126 4 2 0 1 134 39 31 44
127 4 2 0 1 57 44 160 49
128 4 2 0 1 57 44 11 49
129 4 2 0 1 57 165 173 160
130 4 2 0 1 57 54 11 49
131 4 2 0 1 57 165 152 160
132 4 2 0 1 57 152 160 49
133 4 2 0 1 57 165 152 49
134 4 2 0 1 57 165 54 49
135 4 2 0 1 57 13 54 11
136 4 2 0 1 103 21 29 90
137 4 2 0 1 103 34 21 29
138 4 2 0 1 103 124 34 116
139 4 2 0 1 103 95 34 116
140 4 2 0 1 42 124 145 132
141 4 2 0 1 42 145 55 158
142 4 2 0 1 106 119 37 127
143 4 2 0 1 106 24 32 93
144 4 2 0 1 106 24 32 37
145 4 2 0 1 106 24 37 29
146 4 2 0 1 111 119 37 29
147 4 2 0 1 111 119 37 132
148 4 2 0 1 111 42 37 29
149 4 2 0 1 111 42 37 132
150 4 2 0 1 111 42 124 132
151 4 2 0 1 111 42 34 29
152 4 2 0 1 111 42 124 34
153 4 2 0 1 111 103 29 90
154 4 2 0 1 111 103 34 29
155 4 2 0 1 111 103 124 34
156 4 2 0 1 69 74 21 18
157 4 2 0 1 69 74 66 18
158 4 2 0 1 48 40 35 7
159 4 2 0 1 135 40 143 122
160 4 2 0 1 135 32 40 122
161 4 2 0 1 73 78 17 86
162 4 2 0 1 73 78 65 17
163 4 2 0 1 73 25 17 86
164 4 2 0 1 75 19 22 70
165 4 2 0 1 75 80 19 88
166 4 2 0 1 75 80 67 19
167 4 2 0 1 75 14 19 70
168 4 2 0 1 75 14 67 70
169 4 2 0 1 75 14 67 19
170 4 2 0 1 75 19 88 27
171 4 2 0 1 75 19 22 27
172 4 2 0 1 16 14 19 2
173 4 2 0 1 16 24 77 21
174 4 2 0 1 16 69 21 18
175 4 2 0 1 16 15 2 18
176 4 2 0 1 16 14 15 2
177 4 2 0 1 16 14 67 19
178 4 2 0 1 16 14 67 64
179 4 2 0 1 16 69 64 77
180 4 2 0 1 16 69 77 21
181 4 2 0 1 16 15 66 18
182 4 2 0 1 16 14 15 66
183 4 2 0 1 16 14 64 66
184 4 2 0 1 16 69 64 66
185 4 2 0 1 16 69 66 18
186 4 2 0 1 30 104 22 35
187 4 2 0 1 30 25 17 86
188 4 2 0 1 30 78 17 86
189 4 2 0 1 30 78 22 17
190 4 2 0 1 96 109 88 27
191 4 2 0 1 96 75 88 27
192 4 2 0 1 96 104 22 27
193 4 2 0 1 96 104 35 27
194 4 2 0 1 96 104 117 35
195 4 2 0 1 96 109 35 27
196 4 2 0 1 96 109 117 35
197 4 2 0 1 179 174 55 58
198 4 2 0 1 179 174 61 58
199 4 2 0 1 179 166 174 55
200 4 2 0 1 179 166 171 55
201 4 2 0 1 179 177 174 61
202 4 2 0 1 179 180 61 181
203 4 2 0 1 179 177 180 61
204 4 2 0 1 71 63 15 66
205 4 2 0 1 71 79 66 18
206 4 2 0 1 71 15 66 18
207 4 2 0 1 71 79 23 18
208 4 2 0 1 71 15 23 18
209 4 2 0 1 71 79 23 84
210 4 2 0 1 71 76 23 84
211 4 2 0 1 71 76 15 23
212 4 2 0 1 102 33 110 123
213 4 2 0 1 102 115 33 123
214 4 2 0 1 102 110 89 28
215 4 2 0 1 102 33 110 28
216 4 2 0 1 46 149 136 157
217 4 2 0 1 46 54 136 157
218 4 2 0 1 46 149 54 157
219 4 2 0 1 46 54 136 41
220 4 2 0 1 46 33 136 41
221 4 2 0 1 46 149 136 128
222 4 2 0 1 46 33 8 41
223 4 2 0 1 46 54 8 41
224 4 2 0 1 46 115 136 128
225 4 2 0 1 46 115 33 128
226 4 2 0 1 46 115 33 136
227 4 2 0 1 46 149 54 162
228 4 2 0 1 46 13 54 8
229 4 2 0 1 59 170 54 162
230 4 2 0 1 59 13 61 56
231 4 2 0 1 59 180 61 56
232 4 2 0 1 59 57 13 54
233 4 2 0 1 59 180 61 181
234 4 2 0 1 113 100 31 121
235 4 2 0 1 113 134 31 121
236 4 2 0 1 113 31 126 44
237 4 2 0 1 113 134 126 44
238 4 2 0 1 113 134 31 44
239 4 2 0 1 113 31 126 36
240 4 2 0 1 113 105 126 36
241 4 2 0 1 113 105 31 36
242 4 2 0 1 113 105 31 92
243 4 2 0 1 113 100 31 92
244 4 2 0 1 169 174 161 58
245 4 2 0 1 169 177 174 58
246 4 2 0 1 172 180 61 56
247 4 2 0 1 172 177 61 56
248 4 2 0 1 172 177 180 61
249 4 2 0 1 172 177 56 164
250 4 2 0 1 172 159 56 164
251 4 2 0 1 172 167 159 56
252 4 2 0 1 52 39 44 11
253 4 2 0 1 52 57 44 11
254 4 2 0 1 52 134 39 44
255 4 2 0 1 52 57 44 160
256 4 2 0 1 108 95 34 116
257 4 2 0 1 108 100 31 121
258 4 2 0 1 108 39 31 121
259 4 2 0 1 82 69 74 21
260 4 2 0 1 82 103 21 90
261 4 2 0 1 82 103 95 21
262 4 2 0 1 82 77 21 90
263 4 2 0 1 82 69 77 21
264 4 2 0 1 147 52 44 160
265 4 2 0 1 147 139 44 160
266 4 2 0 1 147 52 134 44
267 4 2 0 1 147 52 134 155
268 4 2 0 1 147 139 126 44
269 4 2 0 1 147 134 126 44
270 4 2 0 1 168 57 173 160
271 4 2 0 1 168 52 57 160
272 4 2 0 1 168 147 52 160
273 4 2 0 1 168 147 52 155
274 4 2 0 1 4 34 21 29
275 4 2 0 1 4 12 7 1
276 4 2 0 1 4 2 7 1
277 4 2 0 1 4 3 2 1
278 4 2 0 1 4 24 21 29
279 4 2 0 1 4 12 37 7
280 4 2 0 1 4 3 2 18
281 4 2 0 1 4 16 24 21
282 4 2 0 1 4 24 37 29
283 4 2 0 1 4 19 2 7
284 4 2 0 1 4 24 19 7
285 4 2 0 1 4 16 21 18
286 4 2 0 1 4 16 2 18
287 4 2 0 1 4 16 19 2
288 4 2 0 1 4 16 24 19
289 4 2 0 1 4 32 37 7
290 4 2 0 1 4 24 32 7
291 4 2 0 1 4 24 32 37
292 4 2 0 1 9 12 11 1
293 4 2 0 1 9 4 12 1
294 4 2 0 1 9 12 55 11
295 4 2 0 1 9 42 34 29
296 4 2 0 1 9 4 34 29
297 4 2 0 1 9 4 12 37
298 4 2 0 1 9 42 37 29
299 4 2 0 1 9 4 37 29
300 4 2 0 1 9 52 55 11
301 4 2 0 1 114 32 37 127
302 4 2 0 1 114 106 37 127
303 4 2 0 1 114 106 32 37
304 4 2 0 1 114 32 101 122
305 4 2 0 1 114 32 101 93
306 4 2 0 1 114 106 32 93
307 4 2 0 1 114 135 32 122
308 4 2 0 1 98 119 37 29
309 4 2 0 1 98 106 37 29
310 4 2 0 1 98 106 119 37
311 4 2 0 1 98 111 119 29
312 4 2 0 1 98 111 29 90
313 4 2 0 1 98 77 29 90
314 4 2 0 1 98 106 24 29
315 4 2 0 1 10 13 12 56
316 4 2 0 1 10 48 35 7
317 4 2 0 1 10 48 12 7
318 4 2 0 1 10 46 13 8
319 4 2 0 1 10 13 8 1
320 4 2 0 1 10 12 7 1
321 4 2 0 1 10 13 12 1
322 4 2 0 1 53 48 12 7
323 4 2 0 1 53 48 40 7
324 4 2 0 1 53 12 61 58
325 4 2 0 1 53 12 61 56
326 4 2 0 1 53 48 56 164
327 4 2 0 1 53 10 12 56
328 4 2 0 1 53 10 48 56
329 4 2 0 1 53 10 48 12
330 4 2 0 1 53 48 40 143
331 4 2 0 1 53 169 161 58
332 4 2 0 1 53 135 40 143
333 4 2 0 1 53 177 56 164
334 4 2 0 1 53 177 61 56
335 4 2 0 1 53 169 177 164
336 4 2 0 1 53 177 61 58
337 4 2 0 1 53 169 177 58
338 4 2 0 1 151 48 143 164
339 4 2 0 1 151 48 138 159
340 4 2 0 1 151 159 56 164
341 4 2 0 1 151 48 56 164
342 4 2 0 1 151 48 159 56
343 4 2 0 1 130 48 40 143
344 4 2 0 1 130 138 117 35
345 4 2 0 1 130 48 138 35
346 4 2 0 1 130 151 48 143
347 4 2 0 1 130 151 48 138
348 4 2 0 1 130 40 143 122
349 4 2 0 1 130 48 40 35
350 4 2 0 1 130 109 40 122
351 4 2 0 1 130 109 117 35
352 4 2 0 1 130 109 40 35
353 4 2 0 1 68 15 65 17
354 4 2 0 1 68 73 65 17
355 4 2 0 1 68 63 15 65
356 4 2 0 1 68 71 76 15
357 4 2 0 1 68 71 63 15
358 4 2 0 1 72 24 80 19
359 4 2 0 1 72 16 24 19
360 4 2 0 1 72 80 67 19
361 4 2 0 1 72 16 67 19
362 4 2 0 1 72 16 67 64
363 4 2 0 1 72 16 64 77
364 4 2 0 1 112 104 35 125
365 4 2 0 1 112 30 35 125
366 4 2 0 1 112 30 104 35
367 4 2 0 1 43 112 30 125
368 4 2 0 1 43 30 35 125
369 4 2 0 1 43 146 138 125
370 4 2 0 1 43 138 35 125
371 4 2 0 1 43 10 30 35
372 4 2 0 1 43 48 138 35
373 4 2 0 1 43 10 48 35
374 4 2 0 1 43 146 138 159
375 4 2 0 1 43 48 138 159
376 4 2 0 1 43 10 48 56
377 4 2 0 1 43 48 159 56
378 4 2 0 1 83 75 22 27
379 4 2 0 1 83 96 22 27
380 4 2 0 1 83 96 75 27
381 4 2 0 1 83 75 22 70
382 4 2 0 1 83 78 22 70
383 4 2 0 1 83 96 104 22
384 4 2 0 1 81 73 25 86
385 4 2 0 1 94 102 115 33
386 4 2 0 1 94 102 25 33
387 4 2 0 1 94 81 25 86
388 4 2 0 1 94 81 102 25
389 4 2 0 1 141 46 149 162
390 4 2 0 1 141 46 149 128
391 4 2 0 1 38 46 33 128
392 4 2 0 1 38 141 120 128
393 4 2 0 1 38 141 46 128
394 4 2 0 1 38 46 33 8
395 4 2 0 1 38 10 46 8
396 4 2 0 1 38 112 30 120
397 4 2 0 1 175 59 167 162
398 4 2 0 1 175 59 170 162
399 4 2 0 1 175 59 180 56
400 4 2 0 1 175 59 167 56
401 4 2 0 1 175 172 180 56
402 4 2 0 1 175 172 167 56
403 4 2 0 1 51 141 154 162
404 4 2 0 1 51 141 46 162
405 4 2 0 1 51 167 154 162
406 4 2 0 1 51 59 167 162
407 4 2 0 1 51 46 54 162
408 4 2 0 1 51 59 54 162
409 4 2 0 1 51 38 141 46
410 4 2 0 1 51 59 167 56
411 4 2 0 1 51 46 13 54
412 4 2 0 1 51 59 13 54
413 4 2 0 1 51 167 146 154
414 4 2 0 1 51 10 46 13
415 4 2 0 1 51 43 10 56
416 4 2 0 1 51 59 13 56
417 4 2 0 1 51 10 13 56
418 4 2 0 1 51 38 10 46
419 4 2 0 1 51 38 43 10
420 4 2 0 1 51 167 146 159
421 4 2 0 1 51 167 159 56
422 4 2 0 1 51 43 159 56
423 4 2 0 1 51 43 146 159
424 4 2 0 1 178 57 173 181
425 4 2 0 1 178 175 59 170
426 4 2 0 1 178 59 170 54
427 4 2 0 1 178 59 57 54
428 4 2 0 1 178 59 180 181
429 4 2 0 1 178 175 59 180
430 4 2 0 1 178 165 170 54
431 4 2 0 1 178 57 165 173
432 4 2 0 1 178 57 165 54
433 4 2 0 1 129 108 39 121
434 4 2 0 1 129 108 34 116
435 4 2 0 1 129 108 39 34
436 4 2 0 1 60 52 55 11
437 4 2 0 1 60 52 57 11
438 4 2 0 1 60 57 13 11
439 4 2 0 1 60 12 55 11
440 4 2 0 1 60 13 12 11
441 4 2 0 1 60 179 171 55
442 4 2 0 1 60 168 52 57
443 4 2 0 1 60 13 12 61
444 4 2 0 1 60 59 13 61
445 4 2 0 1 60 59 57 13
446 4 2 0 1 60 12 61 58
447 4 2 0 1 60 12 55 58
448 4 2 0 1 60 179 61 58
449 4 2 0 1 60 179 55 58
450 4 2 0 1 60 179 61 181
451 4 2 0 1 60 59 61 181
452 4 2 0 1 60 57 173 181
453 4 2 0 1 60 178 57 181
454 4 2 0 1 60 178 59 181
455 4 2 0 1 60 178 59 57
456 4 2 0 1 142 52 134 155
457 4 2 0 1 142 52 134 39
458 4 2 0 1 142 134 39 121
459 4 2 0 1 142 129 39 121
460 4 2 0 1 26 108 39 31
461 4 2 0 1 26 108 39 34
462 4 2 0 1 26 108 95 34
463 4 2 0 1 26 108 95 87
464 4 2 0 1 26 31 87 18
465 4 2 0 1 26 108 100 87
466 4 2 0 1 26 100 31 87
467 4 2 0 1 26 108 100 31
468 4 2 0 1 26 4 34 21
469 4 2 0 1 26 82 95 87
470 4 2 0 1 26 82 95 21
471 4 2 0 1 26 103 34 21
472 4 2 0 1 26 103 95 21
473 4 2 0 1 26 103 95 34
474 4 2 0 1 26 82 74 87
475 4 2 0 1 26 74 87 18
476 4 2 0 1 26 74 21 18
477 4 2 0 1 26 82 74 21
478 4 2 0 1 163 168 52 155
479 4 2 0 1 163 142 52 155
480 4 2 0 1 163 60 171 55
481 4 2 0 1 163 60 52 55
482 4 2 0 1 163 171 55 158
483 4 2 0 1 163 150 55 158
484 4 2 0 1 6 3 11 1
485 4 2 0 1 6 9 11 1
486 4 2 0 1 6 4 3 1
487 4 2 0 1 6 9 4 1
488 4 2 0 1 6 3 36 11
489 4 2 0 1 6 4 3 18
490 4 2 0 1 6 9 4 34
491 4 2 0 1 6 26 4 34
492 4 2 0 1 6 36 44 11
493 4 2 0 1 6 31 36 44
494 4 2 0 1 6 31 36 23
495 4 2 0 1 6 3 36 23
496 4 2 0 1 6 39 44 11
497 4 2 0 1 6 39 31 44
498 4 2 0 1 6 52 39 11
499 4 2 0 1 6 26 39 31
500 4 2 0 1 6 26 31 18
501 4 2 0 1 6 4 21 18
502 4 2 0 1 6 26 21 18
503 4 2 0 1 6 26 4 21
504 4 2 0 1 6 9 39 34
505 4 2 0 1 6 26 39 34
506 4 2 0 1 6 31 23 18
507 4 2 0 1 6 3 23 18
508 4 2 0 1 45 12 37 7
509 4 2 0 1 45 53 12 7
510 4 2 0 1 45 53 40 7
511 4 2 0 1 45 53 12 58
512 4 2 0 1 45 32 37 7
513 4 2 0 1 45 32 40 7
514 4 2 0 1 45 53 135 40
515 4 2 0 1 45 135 32 40
516 4 2 0 1 45 53 161 58
517 4 2 0 1 45 140 37 127
518 4 2 0 1 45 32 37 127
519 4 2 0 1 45 114 135 127
520 4 2 0 1 45 114 32 127
521 4 2 0 1 45 114 135 32
522 4 2 0 1 156 53 169 161
523 4 2 0 1 156 53 135 143
524 4 2 0 1 156 53 169 164
525 4 2 0 1 156 48 143 164
526 4 2 0 1 156 53 48 164
527 4 2 0 1 156 53 48 143
528 4 2 0 1 85 16 24 77
529 4 2 0 1 85 72 16 77
530 4 2 0 1 85 72 16 24
531 4 2 0 1 85 24 80 93
532 4 2 0 1 85 72 24 80
533 4 2 0 1 85 106 24 93
534 4 2 0 1 85 98 106 24
535 4 2 0 1 85 24 77 29
536 4 2 0 1 85 98 77 29
537 4 2 0 1 85 98 24 29
538 4 2 0 1 99 112 30 120
539 4 2 0 1 99 30 25 86
540 4 2 0 1 99 30 78 86
541 4 2 0 1 99 38 30 120
542 4 2 0 1 133 43 146 125
543 4 2 0 1 133 43 112 125
544 4 2 0 1 133 38 112 120
545 4 2 0 1 133 38 141 120
546 4 2 0 1 133 51 43 146
547 4 2 0 1 133 43 112 30
548 4 2 0 1 133 38 112 30
549 4 2 0 1 133 38 43 30
550 4 2 0 1 133 51 38 43
551 4 2 0 1 133 51 38 141
552 4 2 0 1 133 51 146 154
553 4 2 0 1 133 51 141 154
554 4 2 0 1 20 81 102 89
555 4 2 0 1 20 102 25 33
556 4 2 0 1 20 81 102 25
557 4 2 0 1 20 102 89 28
558 4 2 0 1 20 102 33 28
559 4 2 0 1 20 81 76 89
560 4 2 0 1 20 76 89 28
561 4 2 0 1 20 33 8 28
562 4 2 0 1 20 3 8 28
563 4 2 0 1 20 25 33 8
564 4 2 0 1 20 3 23 28
565 4 2 0 1 20 3 15 23
566 4 2 0 1 20 3 15 17
567 4 2 0 1 20 76 23 28
568 4 2 0 1 20 76 15 23
569 4 2 0 1 20 81 68 76
570 4 2 0 1 20 68 76 15
571 4 2 0 1 20 68 15 17
572 4 2 0 1 20 73 25 17
573 4 2 0 1 20 81 73 25
574 4 2 0 1 20 81 68 73
575 4 2 0 1 20 68 73 17
576 4 2 0 1 107 94 115 33
577 4 2 0 1 107 94 25 33
578 4 2 0 1 107 38 25 33
579 4 2 0 1 107 115 33 128
580 4 2 0 1 107 38 33 128
581 4 2 0 1 107 38 120 128
582 4 2 0 1 107 99 38 120
583 4 2 0 1 107 94 25 86
584 4 2 0 1 107 99 25 86
585 4 2 0 1 107 38 30 25
586 4 2 0 1 107 99 30 25
587 4 2 0 1 107 99 38 30
588 4 2 0 1 5 25 33 8
589 4 2 0 1 5 38 33 8
590 4 2 0 1 5 38 25 33
591 4 2 0 1 5 38 30 25
592 4 2 0 1 5 38 10 8
593 4 2 0 1 5 30 25 17
594 4 2 0 1 5 43 10 30
595 4 2 0 1 5 38 43 30
596 4 2 0 1 5 38 43 10
597 4 2 0 1 5 3 2 1
598 4 2 0 1 5 3 8 1
599 4 2 0 1 5 3 2 17
600 4 2 0 1 5 20 3 8
601 4 2 0 1 5 20 25 8
602 4 2 0 1 5 10 8 1
603 4 2 0 1 5 22 2 17
604 4 2 0 1 5 30 22 17
605 4 2 0 1 5 20 3 17
606 4 2 0 1 5 20 25 17
607 4 2 0 1 5 2 7 1
608 4 2 0 1 5 10 7 1
609 4 2 0 1 5 30 22 35
610 4 2 0 1 5 10 30 35
611 4 2 0 1 5 10 35 7
612 4 2 0 1 5 22 2 27
613 4 2 0 1 5 22 35 27
614 4 2 0 1 5 2 7 27
615 4 2 0 1 5 35 7 27
616 4 2 0 1 137 129 34 116
617 4 2 0 1 137 124 34 116
618 4 2 0 1 137 42 124 34
619 4 2 0 1 137 42 124 145
620 4 2 0 1 137 42 145 158
621 4 2 0 1 176 60 179 181
622 4 2 0 1 176 60 179 171
623 4 2 0 1 176 60 173 181
624 4 2 0 1 176 163 60 171
625 4 2 0 1 176 168 57 173
626 4 2 0 1 176 60 57 173
627 4 2 0 1 176 60 168 57
628 4 2 0 1 176 60 168 52
629 4 2 0 1 176 163 168 52
630 4 2 0 1 176 163 60 52
631 4 2 0 1 47 142 52 39
632 4 2 0 1 47 142 129 150
633 4 2 0 1 47 142 129 39
634 4 2 0 1 47 163 142 150
635 4 2 0 1 47 163 142 52
636 4 2 0 1 47 9 52 55
637 4 2 0 1 47 163 150 55
638 4 2 0 1 47 163 52 55
639 4 2 0 1 47 137 129 150
640 4 2 0 1 47 9 42 55
641 4 2 0 1 47 6 52 39
642 4 2 0 1 47 6 9 39
643 4 2 0 1 47 129 39 34
644 4 2 0 1 47 137 129 34
645 4 2 0 1 47 9 39 34
646 4 2 0 1 47 9 42 34
647 4 2 0 1 47 42 55 158
648 4 2 0 1 47 137 42 158
649 4 2 0 1 47 137 150 158
650 4 2 0 1 47 150 55 158
651 4 2 0 1 47 137 42 34
652 4 2 0 1 47 9 52 11
653 4 2 0 1 47 6 52 11
654 4 2 0 1 47 6 9 11
655 4 2 0 1 50 153 140 161
656 4 2 0 1 50 45 140 161
657 4 2 0 1 50 45 161 58
658 4 2 0 1 50 45 140 37
659 4 2 0 1 50 153 166 161
660 4 2 0 1 50 166 161 58
661 4 2 0 1 50 153 140 132
662 4 2 0 1 50 140 37 132
663 4 2 0 1 50 166 55 58
664 4 2 0 1 50 45 12 58
665 4 2 0 1 50 42 37 132
666 4 2 0 1 50 45 12 37
667 4 2 0 1 50 153 166 145
668 4 2 0 1 50 12 55 58
669 4 2 0 1 50 42 145 55
670 4 2 0 1 50 153 145 132
671 4 2 0 1 50 42 145 132
672 4 2 0 1 50 9 12 37
673 4 2 0 1 50 9 42 37
674 4 2 0 1 50 166 145 158
675 4 2 0 1 50 145 55 158
676 4 2 0 1 50 166 55 158
677 4 2 0 1 50 9 12 55
678 4 2 0 1 50 9 42 55
679 4 2 0 1 148 45 140 161
680 4 2 0 1 148 45 140 127
681 4 2 0 1 148 45 135 127
682 4 2 0 1 148 45 53 161
683 4 2 0 1 148 156 53 161
684 4 2 0 1 148 45 53 135
685 4 2 0 1 148 156 53 135
686 4 2 0 1 91 112 30 104
687 4 2 0 1 91 99 112 30
688 4 2 0 1 91 30 104 22
689 4 2 0 1 91 30 78 22
690 4 2 0 1 91 99 30 78
691 4 2 0 1 91 83 78 22
692 4 2 0 1 91 83 104 22
$EndElements
